# xmcd
#
# Track frame offsets:
#	175
#	15383
#	26505
#	39070
#	50835
#	57318
#	72885
#	84688
#	96180
#	108105
#	120750
#	132020
#	141810
#	159940
#	171243
#
# Disc length: 2427
#
# Revision: 2
# Processed by: cddbd v1.5.1PL0 Copyright (c) Steve Scherf et al.
# Submitted via: Grip 3.0.6
# Normalized: r1:TDELIM( - )
#
DISCID=b409790f
DTITLE=Various Artist - Blues Greats Volume 2
DYEAR=1900
DGENRE=Blues
TTITLE0=Howlin' Wolf - Commit A Crime
TTITLE1=John Lee Hooker - Boom Boom
TTITLE2=Billie Holiday - God Bless The Child
TTITLE3=Muddy Waters - Your Gonna Miss Me
TTITLE4=Lightnin' Hopkins - Just Pickin'
TTITLE5=B. B. King - Walkin' and Cryin'
TTITLE6=Leadbelly - Boll Weevil Blues
TTITLE7=Howlin' Wolf - Somebody Walkin' In My House
TTITLE8=John Lee Hooker - Frisco Blues
TTITLE9=Billie Holiday - Don't Explain
TTITLE10=Elmore James - Look On Yonder Wall
TTITLE11=Muddy Waters - Mean Red Spider
TTITLE12=Lightnin' Hopkins - Shake That Thing
TTITLE13=Howlin' Wolf - My Country Sugar Mama
TTITLE14=John Lee Hooker - I'm In The Mood
EXTD=
EXTT0=
EXTT1=
EXTT2=
EXTT3=
EXTT4=
EXTT5=
EXTT6=
EXTT7=
EXTT8=
EXTT9=
EXTT10=
EXTT11=
EXTT12=
EXTT13=
EXTT14=
PLAYORDER=
